<svg width="30" height="30" viewBox="0 0 30 30" fill="none" xmlns="http://www.w3.org/2000/svg">
<path d="M22.5 25C20.7775 25 19.375 23.5988 19.375 21.875C19.375 20.1513 20.7775 18.75 22.5 18.75C24.2225 18.75 25.625 20.1513 25.625 21.875C25.625 23.5988 24.2225 25 22.5 25ZM22.5 20C21.4662 20 20.625 20.8413 20.625 21.875C20.625 22.9088 21.4662 23.75 22.5 23.75C23.5337 23.75 24.375 22.9088 24.375 21.875C24.375 20.8413 23.5337 20 22.5 20Z" fill="white"/>
<path d="M23.4687 30H21.5312C20.8937 30 20.3662 29.515 20.3062 28.8725L20.1512 27.2812C19.7887 27.115 19.4425 26.9075 19.115 26.6625L17.7137 27.3137C17.13 27.5875 16.4475 27.3625 16.1287 26.795L15.1612 25.07C14.8512 24.5162 15 23.8162 15.505 23.4412L16.755 22.515C16.7312 22.32 16.7137 22.1037 16.7137 21.8762C16.7137 21.6487 16.7312 21.4337 16.755 21.2375L15.505 20.3113C14.9987 19.9363 14.8512 19.2375 15.16 18.6837L16.1287 16.9562C16.4462 16.39 17.1262 16.1712 17.7125 16.4375L19.1137 17.0887C19.4412 16.8437 19.7875 16.6362 20.15 16.47L20.305 14.8775C20.3662 14.235 20.8937 13.75 21.5312 13.75H23.4687C24.1062 13.75 24.6337 14.235 24.6937 14.8775L24.8487 16.4688C25.2112 16.635 25.5575 16.8425 25.885 17.0875L27.2862 16.4362C27.8712 16.1662 28.5537 16.3875 28.8712 16.955L29.8387 18.68C30.1487 19.2337 30 19.9337 29.495 20.3087L28.245 21.235C28.2687 21.43 28.2862 21.6462 28.2862 21.8737C28.2862 22.1012 28.2687 22.3162 28.245 22.5125L29.495 23.4387C30.0012 23.8137 30.1487 24.5125 29.84 25.0662L28.8712 26.7937C28.555 27.36 27.8762 27.5825 27.2875 27.3125L25.8862 26.6612C25.5587 26.9062 25.2125 27.1137 24.85 27.28L24.695 28.8725C24.6337 29.515 24.1062 30 23.4687 30ZM19.2037 25.3062C19.35 25.3062 19.495 25.3575 19.6112 25.4575C20.0225 25.8112 20.475 26.0825 20.9562 26.2637C21.1787 26.3462 21.335 26.55 21.3587 26.7875L21.55 28.7512L23.4687 28.75L23.6412 26.7875C23.665 26.5512 23.8212 26.3462 24.0437 26.2637C24.525 26.0825 24.9775 25.8125 25.3887 25.4575C25.575 25.2962 25.8375 25.26 26.06 25.365L27.8125 26.1788L28.7487 24.455L27.1987 23.2937C27.01 23.155 26.915 22.92 26.9537 22.6875C26.9987 22.4225 27.035 22.1537 27.035 21.875C27.035 21.5962 26.9987 21.3275 26.9537 21.0625C26.915 20.8287 27.0087 20.595 27.1987 20.4562L28.75 19.3062L27.78 17.5675L26.06 18.3837C25.8375 18.4862 25.575 18.4513 25.3887 18.2913C24.9775 17.9375 24.525 17.6662 24.0437 17.485C23.8212 17.4025 23.665 17.1988 23.6412 16.9613L23.45 14.9975L21.5312 15L21.3587 16.9625C21.335 17.1987 21.1787 17.4037 20.9562 17.4863C20.475 17.6675 20.0225 17.9375 19.6112 18.2925C19.4237 18.4525 19.1612 18.4875 18.94 18.385L17.1875 17.5712L16.2512 19.295L17.8012 20.4562C17.99 20.595 18.085 20.83 18.0462 21.0625C18.0012 21.3275 17.965 21.5962 17.965 21.875C17.965 22.1537 18.0012 22.4225 18.0462 22.6875C18.085 22.9212 17.9912 23.155 17.8012 23.2937L16.25 24.4437L17.22 26.1825L18.94 25.3662C19.0237 25.3262 19.115 25.3062 19.2037 25.3062Z" fill="white"/>
<path d="M14.2375 30H5.625C3.9025 30 2.5 28.5987 2.5 26.875V3.125C2.5 1.40125 3.9025 0 5.625 0H24.375C26.0975 0 27.5 1.40125 27.5 3.125V12.275C27.5 12.62 27.22 12.9 26.875 12.9C26.53 12.9 26.25 12.6212 26.25 12.275V3.125C26.25 2.09125 25.4088 1.25 24.375 1.25H5.625C4.59125 1.25 3.75 2.09125 3.75 3.125V26.875C3.75 27.9088 4.59125 28.75 5.625 28.75H14.2375C14.5825 28.75 14.8625 29.03 14.8625 29.375C14.8625 29.72 14.5838 30 14.2375 30Z" fill="white"/>
<path d="M6.875 11.25C6.53 11.25 6.25 10.97 6.25 10.625V4.375C6.25 4.03 6.53 3.75 6.875 3.75H8.75C10.1287 3.75 11.25 4.87125 11.25 6.25C11.25 7.62875 10.1287 8.75 8.75 8.75H7.5V10.625C7.5 10.97 7.22 11.25 6.875 11.25ZM7.5 7.5H8.75C9.43875 7.5 9.99999 6.94 9.99999 6.25C9.99999 5.56 9.43875 5 8.75 5H7.5V7.5Z" fill="white"/>
<path d="M19.375 11.25C19.03 11.25 18.75 10.97 18.75 10.625V4.375C18.75 4.03 19.03 3.75 19.375 3.75H21.25C22.6287 3.75 23.75 4.87125 23.75 6.25C23.75 7.62875 22.6287 8.75 21.25 8.75H20V10.625C20 10.97 19.72 11.25 19.375 11.25ZM20 7.5H21.25C21.9387 7.5 22.5 6.94 22.5 6.25C22.5 5.56 21.9387 5 21.25 5H20V7.5Z" fill="white"/>
<path d="M16.875 11.25C16.53 11.25 16.25 10.97 16.25 10.625V4.375C16.25 4.03 16.53 3.75 16.875 3.75C17.22 3.75 17.5 4.03 17.5 4.375V10.625C17.5 10.97 17.22 11.25 16.875 11.25Z" fill="white"/>
<path d="M16.5625 8.75H13.4375C13.0925 8.75 12.8125 8.47 12.8125 8.125C12.8125 7.78 13.0925 7.5 13.4375 7.5H16.5625C16.9075 7.5 17.1875 7.78 17.1875 8.125C17.1875 8.47 16.9075 8.75 16.5625 8.75Z" fill="white"/>
<path d="M13.125 11.25C12.78 11.25 12.5 10.97 12.5 10.625V4.375C12.5 4.03 12.78 3.75 13.125 3.75C13.47 3.75 13.75 4.03 13.75 4.375V10.625C13.75 10.97 13.47 11.25 13.125 11.25Z" fill="white"/>
</svg>
