<svg width="30" height="30" viewBox="0 0 30 30" fill="none" xmlns="http://www.w3.org/2000/svg">
<path d="M18.5 17.5H17.95C17.7431 17.5004 17.5581 17.3713 17.487 17.177C17.426 17.017 17.3605 16.8605 17.29 16.7055C17.2024 16.517 17.2424 16.2938 17.39 16.1475L17.782 15.755C18.3639 15.1679 18.3629 14.2212 17.7795 13.6355L16.3665 12.2225C15.7801 11.6395 14.8329 11.6395 14.2465 12.2225L13.8545 12.614C13.7079 12.7611 13.4851 12.801 13.2965 12.714C13.1415 12.6435 12.985 12.578 12.8245 12.514C12.6292 12.4434 12.4993 12.2577 12.5 12.05V11.5C12.5 10.6716 11.8284 10 11 10H9C8.17156 10 7.5 10.6716 7.5 11.5V12.05C7.50037 12.2569 7.37131 12.4419 7.177 12.513C7.017 12.574 6.8605 12.6395 6.7055 12.71C6.51694 12.7972 6.29406 12.7572 6.1475 12.61L5.755 12.218C5.16862 11.6354 4.22188 11.6354 3.6355 12.218L2.2225 13.6355C1.6395 14.2219 1.6395 15.1691 2.2225 15.7555L2.614 16.1475C2.76163 16.2938 2.80163 16.517 2.714 16.7055C2.6435 16.8605 2.578 17.017 2.5165 17.1775C2.44494 17.3729 2.25812 17.5021 2.05 17.5H1.5C0.671562 17.5 0 18.1716 0 19V21C0 21.8284 0.671562 22.5 1.5 22.5H2.05C2.25688 22.4996 2.44194 22.6287 2.513 22.823C2.574 22.983 2.6395 23.1395 2.71 23.2945C2.79763 23.483 2.75762 23.7062 2.61 23.8525L2.218 24.245C1.63538 24.8314 1.63538 25.7781 2.218 26.3645L3.631 27.7775C4.21744 28.3605 5.16456 28.3605 5.751 27.7775L6.143 27.386C6.28963 27.2389 6.51244 27.199 6.701 27.286C6.856 27.3565 7.0125 27.422 7.173 27.486C7.36931 27.5557 7.50037 27.7417 7.5 27.95V28.5C7.5 29.3284 8.17156 30 9 30H11C11.8284 30 12.5 29.3284 12.5 28.5V27.95C12.4996 27.7431 12.6287 27.5581 12.823 27.487C12.983 27.426 13.1395 27.3605 13.2945 27.29C13.4831 27.2028 13.7059 27.2428 13.8525 27.39L14.245 27.782C14.8322 28.3637 15.7787 28.3626 16.3645 27.7795L17.7775 26.3665C18.3605 25.7801 18.3605 24.8329 17.7775 24.2465L17.386 23.8545C17.2384 23.7082 17.1984 23.485 17.286 23.2965C17.3565 23.1415 17.422 22.985 17.486 22.8245C17.5566 22.6292 17.7423 22.4993 17.95 22.5H18.5C19.3284 22.5 20 21.8284 20 21V19C20 18.1716 19.3284 17.5 18.5 17.5ZM19 21C19 21.2761 18.7761 21.5 18.5 21.5H17.95C17.3284 21.5023 16.7722 21.8865 16.55 22.467C16.497 22.607 16.4397 22.7448 16.378 22.8805C16.1209 23.448 16.2402 24.1153 16.678 24.5585L17.069 24.95C17.2644 25.1451 17.2646 25.4618 17.0694 25.6571C17.0692 25.6573 17.0691 25.6574 17.069 25.6575L15.656 27.0705C15.4608 27.2657 15.1442 27.2657 14.949 27.0705L14.557 26.679C14.1139 26.2408 13.4464 26.1215 12.879 26.379C12.7435 26.4405 12.6055 26.498 12.4665 26.551C11.8864 26.7731 11.5025 27.3289 11.5 27.95V28.5C11.5 28.7761 11.2761 29 11 29H9C8.72388 29 8.5 28.7761 8.5 28.5V27.95C8.49769 27.3284 8.1135 26.7722 7.533 26.55C7.393 26.497 7.25519 26.4397 7.1195 26.378C6.552 26.1211 5.88481 26.2404 5.4415 26.678L5.05 27.069C4.85488 27.2644 4.53825 27.2646 4.34288 27.0694C4.34275 27.0692 4.34263 27.0691 4.3425 27.069L2.9295 25.6575C2.73431 25.4622 2.73431 25.1458 2.9295 24.9505L3.321 24.5585C3.75881 24.1153 3.87806 23.448 3.621 22.8805C3.5595 22.745 3.502 22.607 3.449 22.468C3.22737 21.8873 2.6715 21.5028 2.05 21.5H1.5C1.22388 21.5 1 21.2761 1 21V19C1 18.7239 1.22388 18.5 1.5 18.5H2.05C2.67156 18.4977 3.22781 18.1135 3.45 17.533C3.503 17.393 3.56031 17.2552 3.622 17.1195C3.87906 16.552 3.75975 15.8847 3.322 15.4415L2.929 15.05C2.73362 14.8549 2.73344 14.5382 2.92863 14.3429C2.92875 14.3427 2.92887 14.3426 2.929 14.3425L4.342 12.9295C4.53725 12.7343 4.85375 12.7343 5.049 12.9295L5.441 13.321C5.88406 13.7592 6.55156 13.8785 7.119 13.621C7.2545 13.5595 7.3925 13.502 7.5315 13.449C8.11238 13.2276 8.49719 12.6716 8.5 12.05V11.5C8.5 11.2239 8.72388 11 9 11H11C11.2761 11 11.5 11.2239 11.5 11.5V12.05C11.5023 12.6716 11.8865 13.2278 12.467 13.45C12.607 13.503 12.7448 13.5603 12.8805 13.622C13.4479 13.8795 14.1154 13.7602 14.5585 13.322L14.95 12.931C15.146 12.7371 15.4615 12.7371 15.6575 12.931L17.0705 14.344C17.2657 14.5392 17.2657 14.8557 17.0705 15.051L16.679 15.443C16.2413 15.8863 16.1219 16.5535 16.379 17.121C16.4405 17.2565 16.498 17.3945 16.551 17.5335C16.7731 18.1136 17.3289 18.4975 17.95 18.5H18.5C18.7761 18.5 19 18.7239 19 19V21Z" fill="white"/>
<path d="M14.4899 19.8C14.4849 19.68 14.4764 19.5605 14.4619 19.4415C14.4459 19.3135 14.4269 19.1865 14.4004 19.062C14.3829 18.9805 14.3599 18.9 14.3379 18.819C14.3099 18.716 14.2784 18.6145 14.2434 18.5145C14.2189 18.445 14.1934 18.376 14.1674 18.3075C14.103 18.1474 14.0294 17.9911 13.9469 17.8395C13.9404 17.828 13.9364 17.8155 13.9299 17.804C13.7998 17.5725 13.6492 17.3531 13.4799 17.1485C13.4654 17.1305 13.4489 17.1135 13.4339 17.096C13.3649 17.0145 13.2939 16.9355 13.2194 16.86C13.1804 16.8195 13.1394 16.7815 13.0984 16.7425C13.0484 16.696 12.9984 16.65 12.9484 16.606C12.8877 16.5533 12.8259 16.5023 12.7629 16.453L12.6809 16.392C11.9072 15.8125 10.9665 15.4995 9.99991 15.5C9.94991 15.5 9.89991 15.5075 9.84991 15.5095C9.74341 15.5125 9.63641 15.5185 9.52891 15.5295C9.47241 15.5355 9.41541 15.542 9.35891 15.55C9.19591 15.5714 9.03416 15.6017 8.87441 15.6405C6.46685 16.2626 5.01947 18.7188 5.64159 21.1263C6.05159 22.7128 7.2911 23.9513 8.87791 24.36C8.88591 24.36 8.89441 24.3625 8.90291 24.3645C9.07559 24.4076 9.25053 24.441 9.42691 24.4645C9.54341 24.479 9.65991 24.482 9.77691 24.4875C9.85491 24.4915 9.92691 24.503 10.0084 24.503C10.1509 24.503 10.2989 24.4935 10.4499 24.4785C10.4659 24.4785 10.4819 24.474 10.4999 24.472C10.6214 24.4585 10.7444 24.4405 10.8699 24.4155C10.9199 24.406 10.9664 24.3935 11.0144 24.3825C11.1024 24.362 11.1899 24.3405 11.2799 24.314C11.3499 24.293 11.4179 24.2685 11.4864 24.2445C11.5549 24.2205 11.6259 24.1945 11.6969 24.1675C11.7679 24.1405 11.8274 24.1095 11.8919 24.0795C11.9759 24.041 12.0594 24.003 12.1419 23.958H12.1449C12.6115 23.7082 13.0425 23.3969 13.4264 23.0325C13.5301 22.9358 13.6203 22.8254 13.6944 22.7045C14.0847 22.0789 14.341 21.3792 14.4474 20.6495C14.4614 20.553 14.4739 20.4565 14.4814 20.358C14.4884 20.2675 14.4934 20.1775 14.4954 20.0875C14.4954 20.059 14.4994 20.032 14.4994 20.0035C14.4999 19.933 14.4929 19.868 14.4899 19.8ZM13.4934 20.1275C13.4934 20.169 13.4899 20.2105 13.4874 20.2515C13.4784 20.3725 13.4629 20.4935 13.4424 20.615C13.2555 21.6546 12.6101 22.5546 11.6854 23.065C11.6234 23.0975 11.5624 23.128 11.5014 23.156L11.4599 23.176C11.1694 23.3079 10.8628 23.4007 10.5479 23.452C10.5259 23.4555 10.5034 23.4595 10.4809 23.4625C10.4184 23.4715 10.3569 23.479 10.2959 23.4845C10.2154 23.4915 10.1344 23.4955 10.0519 23.497C10.0169 23.497 9.98241 23.497 9.94741 23.497C9.8291 23.4956 9.71097 23.4883 9.59341 23.475L9.53341 23.468C9.39591 23.45 9.25953 23.4243 9.12491 23.391C7.25228 22.9117 6.12278 21.0051 6.60203 19.1324C6.91872 17.8951 7.88435 16.9284 9.12141 16.6105V16.61C9.40866 16.5376 9.70366 16.5006 9.99991 16.5C10.1428 16.5008 10.2857 16.5105 10.4274 16.529C10.4654 16.5335 10.5029 16.5405 10.5404 16.546C10.6484 16.563 10.7554 16.5845 10.8609 16.6115C10.8954 16.6205 10.9299 16.6285 10.9639 16.638C11.2298 16.7148 11.4857 16.8225 11.7264 16.959C11.7649 16.9815 11.8024 17.005 11.8404 17.0285C11.9194 17.0785 11.9959 17.1285 12.0714 17.1855C12.1119 17.215 12.1529 17.244 12.1919 17.2755C12.29 17.3539 12.384 17.4373 12.4734 17.5255C12.5089 17.5615 12.5414 17.601 12.5759 17.6385C12.6334 17.701 12.6894 17.765 12.7429 17.8325C12.7799 17.879 12.8154 17.927 12.8504 17.9755C12.9004 18.0475 12.9504 18.1225 12.9954 18.1985C13.0204 18.24 13.0454 18.2805 13.0709 18.323C13.1354 18.4417 13.1928 18.5641 13.2429 18.6895C13.2629 18.7395 13.2799 18.7895 13.2979 18.8395C13.3304 18.9315 13.3584 19.0245 13.3829 19.1185C13.3954 19.1685 13.4094 19.213 13.4199 19.2615C13.4491 19.3966 13.4703 19.5334 13.4834 19.671C13.4864 19.7075 13.4864 19.7445 13.4889 19.781C13.4959 19.896 13.4979 20.0115 13.4934 20.1275Z" fill="white"/>
<path d="M28.5 10.5H26.9275C26.7178 10.5021 26.5303 10.3701 26.4615 10.172C26.3065 9.70756 26.1188 9.25456 25.9 8.8165C25.8072 8.62731 25.8458 8.39987 25.996 8.252L27.111 7.1355C27.6963 6.54981 27.6963 5.60069 27.111 5.015L24.985 2.8925C24.3993 2.30725 23.4502 2.30725 22.8645 2.8925L21.75 4.0065C21.6023 4.15662 21.3752 4.1955 21.186 4.103C20.7479 3.88306 20.2948 3.69444 19.83 3.5385C19.6312 3.47044 19.4982 3.28269 19.5 3.0725V1.5C19.5 0.671562 18.8285 0 18 0H15C14.1716 0 13.5 0.671562 13.5 1.5V3.0725C13.5022 3.28219 13.3702 3.46975 13.172 3.5385C12.7075 3.69438 12.2545 3.88287 11.8165 4.1025C11.6273 4.19569 11.3998 4.157 11.252 4.0065L10.1355 2.8915C9.54915 2.30794 8.6014 2.30794 8.01503 2.8915L5.89303 5.0135C5.30747 5.59925 5.30747 6.54875 5.89303 7.1345L7.53253 8.777C7.73084 8.96913 8.0474 8.96412 8.23953 8.76575C8.42697 8.57225 8.4274 8.265 8.24053 8.071L6.60003 6.429C6.40484 6.23375 6.40484 5.91725 6.60003 5.722L8.72203 3.6C8.91728 3.40481 9.23378 3.40481 9.42903 3.6L10.546 4.715C10.998 5.16963 11.6905 5.28325 12.264 4.997C12.6601 4.79869 13.0696 4.62844 13.4895 4.4875C14.0957 4.28231 14.5027 3.71244 14.5 3.0725V1.5C14.5 1.22388 14.7239 1 15 1H18C18.2762 1 18.5 1.22388 18.5 1.5V3.0725C18.4975 3.71231 18.9045 4.282 19.5105 4.487C19.9307 4.628 20.3403 4.79838 20.7365 4.997C21.3102 5.28175 22.0018 5.168 22.454 4.7145L23.571 3.6C23.7663 3.40481 24.0828 3.40481 24.278 3.6L26.4 5.7225C26.5949 5.91769 26.5949 6.23381 26.4 6.429L25.285 7.546C24.8308 7.99819 24.7173 8.69038 25.003 9.264C25.2013 9.66006 25.3716 10.0696 25.5125 10.4895C25.7176 11.0957 26.2875 11.5028 26.9275 11.5H28.5C28.7762 11.5 29 11.7239 29 12V15C29 15.2761 28.7762 15.5 28.5 15.5H26.9275C26.2877 15.4974 25.718 15.9044 25.513 16.5105C25.3721 16.9306 25.2017 17.3403 25.003 17.7365C24.7178 18.3101 24.8316 19.0019 25.2855 19.454L26.4005 20.571C26.5957 20.7662 26.5957 21.0828 26.4005 21.278L24.2775 23.4C24.0823 23.5949 23.7662 23.5949 23.571 23.4L21.928 21.7605C21.7359 21.5621 21.4193 21.5571 21.221 21.7493C21.0227 21.9414 21.0177 22.2579 21.2098 22.4562C21.2138 22.4604 21.2179 22.4645 21.222 22.4685L22.8645 24.108C23.4502 24.6933 24.3993 24.6933 24.985 24.108L27.107 21.9865C27.6926 21.4007 27.6926 20.4513 27.107 19.8655L25.9935 18.75C25.8435 18.6022 25.8047 18.3752 25.897 18.186C26.117 17.7479 26.3056 17.2948 26.4615 16.83C26.5296 16.6311 26.7173 16.4981 26.9275 16.5H28.5C29.3285 16.5 30 15.8284 30 15V12C30 11.1716 29.3285 10.5 28.5 10.5Z" fill="white"/>
<path d="M21.096 8.90397C18.5561 6.36941 14.4439 6.36941 11.904 8.90397C11.7122 9.1026 11.7177 9.41916 11.9163 9.61097C12.1101 9.7981 12.4173 9.7981 12.611 9.61097C14.7444 7.44872 18.2268 7.42541 20.389 9.55885C22.5513 11.6923 22.5746 15.1746 20.4411 17.3368C20.4239 17.3543 20.4065 17.3717 20.389 17.389C20.1904 17.5808 20.1849 17.8973 20.3768 18.096C20.5686 18.2946 20.8851 18.3001 21.0838 18.1082C21.0879 18.1042 21.092 18.1001 21.096 18.096C23.6306 15.5561 23.6306 11.4438 21.096 8.90397Z" fill="white"/>
</svg>
