<svg width="30" height="30" viewBox="0 0 30 30" fill="none" xmlns="http://www.w3.org/2000/svg">
<path d="M29.4964 13.4111L26.962 11.1019V3.4447C26.962 2.95749 26.5671 2.56245 26.0798 2.56245H19.9793C19.4921 2.56245 19.0971 2.95743 19.0971 3.4447V3.93536L16.0364 1.14647C15.4455 0.608057 14.5546 0.608115 13.9641 1.14642L0.504024 13.4112C0.0308212 13.8425 -0.125566 14.5069 0.105645 15.1039C0.336915 15.7009 0.900001 16.0866 1.54025 16.0866H3.69V28.375C3.69 28.8622 4.08498 29.2572 4.57225 29.2572H11.95C12.4372 29.2572 12.8322 28.8623 12.8322 28.375V20.9139H17.1682V28.375C17.1682 28.8623 17.5632 29.2573 18.0505 29.2573H25.4279C25.9151 29.2573 26.3101 28.8623 26.3101 28.375V16.0867H28.4603C29.1005 16.0867 29.6636 15.7009 29.8949 15.104C30.126 14.5069 29.9697 13.8425 29.4964 13.4111ZM25.4279 14.3222C24.9407 14.3222 24.5456 14.7172 24.5456 15.2045V27.4928H18.9328V20.0317C18.9328 19.5444 18.5377 19.1494 18.0505 19.1494H11.95C11.4628 19.1494 11.0677 19.5444 11.0677 20.0317V27.4928H5.45443V15.2045C5.45443 14.7173 5.05945 14.3222 4.57219 14.3222H2.12397L15.0003 2.5894L19.3852 6.58497C19.6435 6.82028 20.0163 6.88093 20.3358 6.73989C20.6554 6.59868 20.8616 6.28216 20.8616 5.93282V4.32694H25.1977V11.4916C25.1977 11.7398 25.3022 11.9765 25.4857 12.1437L27.8765 14.3222H25.4279Z" fill="white"/>
</svg>
