<svg width="30" height="30" viewBox="0 0 30 30" fill="none" xmlns="http://www.w3.org/2000/svg">
<path d="M24.3792 11.4871L18.7807 11.4927C17.8676 11.4927 17.1094 12.2357 17.1094 13.1488V24.8326C17.1094 25.7457 17.8673 26.6017 18.7807 26.6017H18.7884L24.3755 26.5398C25.2886 26.5398 26.0334 25.7685 26.0334 24.8553L26.04 13.1628C26.04 12.2467 25.2956 11.4871 24.3792 11.4871ZM21.0888 12.3048H22.0781C22.3369 12.3048 22.5469 12.5148 22.5469 12.7735C22.5469 13.0323 22.3369 13.2423 22.0781 13.2423H21.0888C20.8301 13.2423 20.6201 13.0323 20.6201 12.7735C20.6201 12.5148 20.8298 12.3048 21.0888 12.3048ZM19.3805 12.3608C19.5563 12.1874 19.868 12.1874 20.0437 12.3608C20.1305 12.4499 20.1797 12.5694 20.1797 12.6936C20.1797 12.8155 20.1305 12.9374 20.0437 13.0241C19.957 13.1108 19.8349 13.1624 19.7109 13.1624C19.5888 13.1624 19.4672 13.1108 19.3805 13.0241C19.2938 12.9374 19.2422 12.8155 19.2422 12.6936C19.2424 12.5692 19.2938 12.4473 19.3805 12.3608ZM21.5834 26.0263C21.1955 26.0263 20.8798 25.7106 20.8798 25.3229C20.8798 24.9353 21.1955 24.6196 21.5834 24.6196C21.9712 24.6196 22.287 24.935 22.287 25.3229C22.287 25.7108 21.9712 26.0263 21.5834 26.0263ZM25.0781 24.0235C25.0781 24.1529 24.9734 24.2579 24.8438 24.2579H18.2812C18.1516 24.2579 18.0469 24.1529 18.0469 24.0235V14.1798C18.0469 14.0504 18.1516 13.9454 18.2812 13.9454H24.8438C24.9734 13.9454 25.0781 14.0504 25.0781 14.1798V24.0235Z" fill="white"/>
<path d="M29.7591 20.7422H28.3594V5.18391C28.3594 4.125 27.4966 3.39844 26.438 3.39844H3.56203C2.50289 3.39844 1.64062 4.125 1.64062 5.18391V20.7422H0.240469C0.111094 20.7422 0 20.7056 0 20.835V21.0534C0 22.2281 0.961641 23.3203 2.13609 23.3203H17.5781V19.8047H3.04688V5.50781H26.9531V19.8047H25.7812V23.3203H27.863C29.0381 23.3203 30 22.2281 30 21.0534V20.835C30 20.7056 29.8884 20.7422 29.7591 20.7422ZM15.3302 4.75734C15.2433 4.8443 15.1237 4.89328 14.9998 4.89328C14.8758 4.89328 14.7558 4.8443 14.6693 4.75734C14.58 4.66852 14.531 4.54875 14.531 4.42453C14.531 4.30031 14.58 4.18078 14.6693 4.09406C14.8427 3.91828 15.1568 3.91828 15.3302 4.09406C15.4191 4.18078 15.4685 4.30266 15.4685 4.42453C15.4685 4.54875 15.4191 4.66828 15.3302 4.75734Z" fill="white"/>
</svg>
