<svg width="418" height="344" viewBox="0 0 418 344" fill="none" xmlns="http://www.w3.org/2000/svg">
<g>
<path d="M358.211 2.2085H60.07C46.7941 2.2085 36.0319 12.688 36.0319 25.6152V202.57C36.0319 215.497 46.7941 225.977 60.07 225.977H358.211C371.487 225.977 382.249 215.497 382.249 202.57V25.6152C382.249 12.688 371.487 2.2085 358.211 2.2085Z" stroke="#0167A1" strokeWidth="4.08616"/>
<path d="M360.994 25.4119H57.2863V193.839H360.994V25.4119Z" stroke="#0167A1" strokeWidth="3.89738"/>
<path d="M2.72144 228.045V236.476C2.72144 246.732 11.2702 255.061 22.045 255.061H396.035C406.81 255.061 415.56 246.732 415.56 236.476V228.045H2.72144Z" stroke="#0167A1" strokeWidth="4.08616" strokeMiterlimit="60.9"/>
<path d="M0.669067 226L32.2373 205.991H384.252L417.605 226H0.669067Z" fill="#0167A1"/>
<path d="M209 19.482C211.92 19.482 214.288 17.2284 214.288 14.4485C214.288 11.6686 211.92 9.41504 209 9.41504C206.08 9.41504 203.712 11.6686 203.712 14.4485C203.712 17.2284 206.08 19.482 209 19.482Z" fill="#0167A1"/>
</g>
<path d="M298.651 40.9023H164.582C148.149 40.9023 134.828 53.8739 134.828 69.8752V290.069C134.828 306.07 148.149 319.041 164.582 319.041H298.651C315.083 319.041 328.405 306.07 328.405 290.069V69.8752C328.405 53.8739 315.083 40.9023 298.651 40.9023Z" fill="white" stroke="#0167A1" strokeWidth="4.08616"/>
<path d="M305.273 69.813H157.96V279.639H305.273V69.813Z" fill="white" stroke="#0167A1" strokeWidth="4.08616"/>
<path d="M249.879 293.994H213.355V304.424H249.879V293.994Z" fill="#0167A1"/>
<path d="M234.232 60.3277C236.764 60.3277 238.817 58.3738 238.817 55.9635C238.817 53.5532 236.764 51.5992 234.232 51.5992C231.7 51.5992 229.647 53.5532 229.647 55.9635C229.647 58.3738 231.7 60.3277 234.232 60.3277Z" fill="#0167A1"/>
<path d="M179.398 162.096H103.485C92.9147 162.096 84.3461 170.44 84.3461 180.732V322.364C84.3461 332.657 92.9147 341 103.485 341H179.398C189.968 341 198.536 332.657 198.536 322.364V180.732C198.536 170.44 189.968 162.096 179.398 162.096Z" fill="white" stroke="#0167A1" strokeWidth="4.08616"/>
<path d="M184.891 180.692H97.9912V315.656H184.891V180.692Z" fill="white" stroke="#0167A1" strokeWidth="4.08616"/>
<path d="M152.214 324.888H130.669V331.597H152.214V324.888Z" fill="#0167A1"/>
</svg>
