<svg width="200" height="155" viewBox="0 0 200 155" fill="none" xmlns="http://www.w3.org/2000/svg">
<path d="M162.528 53.9607L125.205 53.9982C119.117 53.9982 114.062 58.9548 114.062 65.0465V142.993C114.062 149.084 119.116 154.794 125.205 154.794H125.256L162.503 154.382C168.591 154.382 173.556 149.236 173.556 143.144L173.6 65.1403C173.6 59.0283 168.637 53.9607 162.528 53.9607ZM140.592 59.416H147.187C148.912 59.416 150.312 60.817 150.312 62.5432C150.312 64.2694 148.912 65.6703 147.187 65.6703H140.592C138.867 65.6703 137.467 64.2694 137.467 62.5432C137.467 60.817 138.866 59.416 140.592 59.416ZM129.203 59.7897C130.375 58.6327 132.453 58.6327 133.625 59.7897C134.203 60.3839 134.531 61.1813 134.531 62.01C134.531 62.8231 134.203 63.6361 133.625 64.2147C133.047 64.7932 132.233 65.1372 131.406 65.1372C130.592 65.1372 129.781 64.7932 129.203 64.2147C128.625 63.6361 128.281 62.8231 128.281 62.01C128.283 61.1797 128.625 60.3667 129.203 59.7897ZM143.889 150.956C141.303 150.956 139.198 148.85 139.198 146.264C139.198 143.677 141.303 141.571 143.889 141.571C146.475 141.571 148.58 143.676 148.58 146.264C148.58 148.851 146.475 150.956 143.889 150.956ZM167.187 137.595C167.187 138.458 166.489 139.159 165.625 139.159H121.875C121.011 139.159 120.312 138.458 120.312 137.595V71.9247C120.312 71.0616 121.011 70.3611 121.875 70.3611H165.625C166.489 70.3611 167.187 71.0616 167.187 71.9247V137.595Z" fill="white"/>
<path d="M198.394 115.705H189.063V11.9114C189.063 4.8471 183.311 0 176.253 0H23.7469C16.6859 0 10.9375 4.8471 10.9375 11.9114V115.705H1.60313C0.740625 115.705 0 115.461 0 116.324V117.781C0 125.618 6.41094 132.904 14.2406 132.904H114.041V109.451H20.3125V14.0722H179.688V109.451H173.63V132.904H185.753C193.588 132.904 200 125.618 200 117.781V116.324C200 115.461 199.256 115.705 198.394 115.705ZM102.202 9.06564C101.622 9.64573 100.825 9.97252 99.9984 9.97252C99.1719 9.97252 98.3719 9.64573 97.7953 9.06564C97.2 8.47305 96.8734 7.67406 96.8734 6.84536C96.8734 6.01666 97.2 5.21923 97.7953 4.64071C98.9516 3.46802 101.045 3.46802 102.202 4.64071C102.794 5.21923 103.123 6.0323 103.123 6.84536C103.123 7.67406 102.794 8.47148 102.202 9.06564Z" fill="white"/>
</svg>
