<svg width="700" height="234" viewBox="0 0 700 234" fill="none" xmlns="http://www.w3.org/2000/svg">
<rect width="700" height="234" fill="#D50000"/>
<g filter="url(#filter0_d)">
<path d="M140.363 69.2773H97.6875V185H63.4102V69.2773H21.5156V42.8125H140.363V69.2773ZM277.219 136.855C276.763 146.751 274.094 155.508 269.211 163.125C264.328 170.677 257.46 176.536 248.605 180.703C239.816 184.87 229.758 186.953 218.43 186.953C199.745 186.953 185.031 180.866 174.289 168.691C163.547 156.517 158.176 139.329 158.176 117.129V110.098C158.176 96.1654 160.585 83.9909 165.402 73.5742C170.285 63.0924 177.284 55.0195 186.398 49.3555C195.513 43.6263 206.06 40.7617 218.039 40.7617C235.292 40.7617 249.159 45.319 259.641 54.4336C270.122 63.4831 276.079 75.9831 277.512 91.9336H243.332C243.072 83.2747 240.891 77.0573 236.789 73.2812C232.688 69.5052 226.438 67.6172 218.039 67.6172C209.51 67.6172 203.26 70.8073 199.289 77.1875C195.318 83.5677 193.234 93.7565 193.039 107.754V117.812C193.039 132.982 194.927 143.822 198.703 150.332C202.544 156.842 209.12 160.098 218.43 160.098C226.307 160.098 232.329 158.242 236.496 154.531C240.663 150.82 242.876 144.928 243.137 136.855H277.219Z" fill="black"/>
</g>
<g filter="url(#filter1_d)">
<path d="M338.02 136.758V185H303.742V42.8125H360.48C371.353 42.8125 380.956 44.8307 389.289 48.8672C397.688 52.8385 404.165 58.5352 408.723 65.957C413.345 73.3138 415.656 81.6797 415.656 91.0547C415.656 104.922 410.676 116.022 400.715 124.355C390.819 132.624 377.212 136.758 359.895 136.758H338.02ZM338.02 110.293H360.48C367.121 110.293 372.167 108.633 375.617 105.312C379.133 101.992 380.891 97.3047 380.891 91.25C380.891 84.6094 379.1 79.3034 375.52 75.332C371.939 71.3607 367.056 69.3424 360.871 69.2773H338.02V110.293ZM444.016 185V42.8125H489.816C502.382 42.8125 513.677 45.6771 523.703 51.4062C533.729 57.0703 541.542 65.1107 547.141 75.5273C552.805 85.8789 555.669 97.5 555.734 110.391V116.934C555.734 129.954 552.967 141.641 547.434 151.992C541.965 162.279 534.217 170.352 524.191 176.211C514.23 182.005 503.098 184.935 490.793 185H444.016ZM478.293 69.2773V158.633H490.207C500.038 158.633 507.59 155.15 512.863 148.184C518.137 141.152 520.773 130.736 520.773 116.934V110.781C520.773 97.0443 518.137 86.6927 512.863 79.7266C507.59 72.7604 499.908 69.2773 489.816 69.2773H478.293ZM672.863 128.359H617.59V185H583.312V42.8125H678.43V69.2773H617.59V101.992H672.863V128.359Z" fill="white"/>
</g>
<defs>
<filter id="filter0_d" x="17.5156" y="40.7617" width="263.996" height="154.191" filterUnits="userSpaceOnUse" color-interpolation-filters="sRGB">
<feFlood flood-opacity="0" result="BackgroundImageFix"/>
<feColorMatrix in="SourceAlpha" type="matrix" values="0 0 0 0 0 0 0 0 0 0 0 0 0 0 0 0 0 0 127 0"/>
<feOffset dy="4"/>
<feGaussianBlur stdDeviation="2"/>
<feColorMatrix type="matrix" values="0 0 0 0 0 0 0 0 0 0 0 0 0 0 0 0 0 0 1 0"/>
<feBlend mode="normal" in2="BackgroundImageFix" result="effect1_dropShadow"/>
<feBlend mode="normal" in="SourceGraphic" in2="effect1_dropShadow" result="shape"/>
</filter>
<filter id="filter1_d" x="299.742" y="42.8125" width="382.688" height="150.188" filterUnits="userSpaceOnUse" color-interpolation-filters="sRGB">
<feFlood flood-opacity="0" result="BackgroundImageFix"/>
<feColorMatrix in="SourceAlpha" type="matrix" values="0 0 0 0 0 0 0 0 0 0 0 0 0 0 0 0 0 0 127 0"/>
<feOffset dy="4"/>
<feGaussianBlur stdDeviation="2"/>
<feColorMatrix type="matrix" values="0 0 0 0 0 0 0 0 0 0 0 0 0 0 0 0 0 0 1 0"/>
<feBlend mode="normal" in2="BackgroundImageFix" result="effect1_dropShadow"/>
<feBlend mode="normal" in="SourceGraphic" in2="effect1_dropShadow" result="shape"/>
</filter>
</defs>
</svg>
