<svg width="36" height="36" viewBox="0 0 36 36" fill="none" xmlns="http://www.w3.org/2000/svg">
<path d="M7.53403 11.4131C11.1127 11.4131 13.9907 10.7287 16.0776 9.3746C18.044 8.10149 19.2796 6.247 19.7542 3.85531C18.481 4.12759 17.0118 4.56914 15.7009 5.26089C14.9249 5.673 14.2695 6.21021 13.6366 6.72534C12.6044 7.57163 11.5421 8.44 10.0052 8.71229C9.95999 8.71965 9.90725 8.72701 9.86205 8.72701C9.46274 8.72701 9.11618 8.44736 9.04837 8.05733C9.0107 7.84392 9.0559 7.63051 9.18398 7.45389C9.31206 7.27727 9.50041 7.15953 9.7189 7.12273C10.8189 6.9314 11.5949 6.29852 12.5743 5.48902C13.2674 4.92237 13.9907 4.32629 14.9174 3.84059C16.3036 3.10468 17.8255 2.6337 19.1515 2.33198C18.3228 1.91252 16.6803 1.26492 14.616 1.36059C11.9942 1.47833 9.54562 2.72937 7.34568 5.07691C3.91016 8.74172 1.49174 9.35253 0.459576 9.61009L0.384236 9.63217C0.158215 9.69104 0 9.88974 0 10.1252C0 10.3534 0.165749 10.5521 0.39177 10.6109C0.89655 10.7287 3.57867 11.3395 6.87857 11.4131H7.53403Z" fill="white"/>
<path d="M34.3099 17.5504C33.0517 16.0712 31.3415 15.431 29.3676 15.6812C28.2827 15.821 27.2581 16.2184 26.4971 16.6305C26.6026 16.7188 26.7081 16.8071 26.8211 16.8954C27.0471 17.072 27.3033 17.1898 27.5519 17.3002C27.6498 17.3443 27.7553 17.3958 27.8533 17.4473C27.9437 17.359 28.0567 17.3002 28.1772 17.256C28.3882 17.1898 28.6142 17.2119 28.8101 17.3075C29.006 17.4106 29.1491 17.5724 29.2169 17.7785C29.2847 17.9846 29.2621 18.2053 29.1642 18.3967C28.3128 19.9936 27.0697 20.2364 26.3992 20.2364C26.0376 20.2364 25.6835 20.1702 25.3821 20.0451C25.1787 19.9568 25.0205 19.8022 24.9376 19.6035C24.8547 19.4049 24.8623 19.1841 24.9451 18.9854C25.028 18.8088 25.1636 18.6689 25.3294 18.588C25.2917 18.3378 25.2842 18.0655 25.3068 17.7711C25.0205 17.5209 24.7492 17.256 24.4856 16.9764C23.8376 17.0647 23.0767 17.2928 22.3685 17.8079C21.1329 18.691 20.3946 20.1849 20.1761 22.2234C19.8747 25.064 21.4493 27.9708 24.1917 29.634C24.7568 29.9798 25.5102 30.2595 26.354 30.4435C26.919 30.5686 27.4841 30.6274 28.0491 30.6274C31.1155 30.6274 33.9935 28.8613 35.2743 26.028C35.2818 26.0133 35.8167 24.8138 35.9599 23.1727C36.1633 20.9944 35.5907 19.0516 34.3099 17.5504ZM22.5418 23.9012C22.3685 23.9012 22.2103 23.7835 22.1726 23.6069C22.0897 23.2169 22.0822 22.9593 22.0822 22.9446C22.0747 22.7385 22.2404 22.5766 22.4514 22.5693H22.4589C22.6623 22.5693 22.8281 22.7312 22.8356 22.9298C22.8356 22.9372 22.8431 23.1433 22.9109 23.4597C22.9561 23.6584 22.8205 23.8497 22.6171 23.8939C22.5945 23.9012 22.5719 23.9012 22.5418 23.9012ZM25.8341 27.6691C25.7663 27.7942 25.6383 27.8604 25.5026 27.8604C25.4424 27.8604 25.3821 27.8457 25.3218 27.8163C23.6342 26.9258 22.7904 25.248 22.6397 24.9168C22.5568 24.7328 22.6397 24.512 22.8281 24.4311C23.0164 24.3501 23.2424 24.4311 23.3253 24.6151C23.4609 24.9021 24.2068 26.396 25.6835 27.1687C25.8643 27.2717 25.9321 27.4925 25.8341 27.6691Z" fill="white"/>
<path d="M16.56 22.0032C15.7388 22.0474 15.1436 21.937 14.7518 21.8192C14.7443 21.8855 14.7367 21.9517 14.7292 22.0253C15.0004 22.2093 15.234 22.4595 15.4449 22.7906C15.7614 22.7538 16.0853 22.8937 16.2586 23.1733C16.4997 23.556 16.3716 24.0564 15.9798 24.2845C15.3847 24.6378 14.7819 24.8144 14.1867 24.8144C13.9306 24.8144 13.6669 24.7776 13.4183 24.7114C11.9642 24.3213 11.1882 22.9673 11.1053 22.8127C10.8868 22.4153 11.0451 21.9296 11.4444 21.7162C11.8286 21.5175 12.2957 21.6426 12.5293 21.9885C12.695 21.9002 12.8834 21.8119 13.0868 21.7604C13.1018 21.6132 13.1169 21.466 13.132 21.3188C12.8005 21.1937 12.356 20.9582 11.8211 20.5461C11.0224 19.928 9.98275 19.7219 8.91292 19.9721C7.18763 20.3695 5.60548 21.8266 4.56579 23.9828C3.20213 26.8087 3.49595 30.1571 5.33426 32.7254C5.87671 33.4834 6.63764 34.1236 7.65474 34.6829C8.84511 35.3378 10.141 35.7573 11.5122 35.9266C11.8889 35.9707 12.2505 36.0002 12.5895 36.0002C13.358 36.0002 14.0511 35.8824 14.7518 35.6322C17.7654 34.5651 19.9653 31.9895 20.5003 28.906C20.9071 26.5585 20.4701 24.4685 19.2873 23.1733C18.5489 22.3638 17.5846 21.9517 16.56 22.0032ZM6.99928 25.6165C6.90134 25.9182 6.42669 27.5078 6.97668 29.0606C7.04448 29.2519 6.93901 29.4653 6.74312 29.5315C6.70545 29.5463 6.66025 29.5536 6.61504 29.5536C6.45683 29.5536 6.31368 29.458 6.26094 29.3108C5.62808 27.5372 6.163 25.7416 6.27601 25.3958C6.34382 25.2044 6.55477 25.094 6.75065 25.1603C6.95407 25.2118 7.06708 25.4178 6.99928 25.6165ZM7.80542 24.049C7.80542 24.049 7.66227 24.2109 7.49652 24.4906C7.42872 24.6083 7.30064 24.6746 7.17256 24.6746C7.10475 24.6746 7.04448 24.6598 6.98421 24.6231C6.80339 24.52 6.74312 24.2919 6.8486 24.1153C7.05202 23.7768 7.23283 23.5781 7.24037 23.5707C7.37598 23.4162 7.61707 23.4014 7.77528 23.5339C7.92596 23.659 7.94103 23.8945 7.80542 24.049Z" fill="white"/>
<path d="M12.8153 5.76881C11.8284 6.5783 10.9846 7.27005 9.77912 7.48347C9.53049 7.52762 9.37228 7.75575 9.40995 7.9986C9.44762 8.21201 9.63597 8.35919 9.85446 8.35919C9.88459 8.35919 9.9072 8.3592 9.93733 8.35184C11.3763 8.10163 12.3558 7.29949 13.3955 6.44584C14.0434 5.91599 14.7139 5.37142 15.52 4.93723C17.7803 3.74506 20.5076 3.2888 21.9014 3.1269C21.0048 4.45153 19.9199 6.1294 18.835 7.9986C15.5125 13.7092 13.6968 18.4338 13.4407 22.0618C13.1544 22.0986 12.853 22.209 12.5592 22.3929C12.5064 22.4297 12.4612 22.4592 12.416 22.496C12.2955 22.3414 12.2352 22.2237 12.2352 22.2163C12.1147 22.0029 11.8434 21.9219 11.625 22.0323C11.4065 22.1501 11.3236 22.415 11.4366 22.6284C11.4667 22.6873 12.19 23.9898 13.516 24.3431C13.7345 24.402 13.9605 24.4314 14.1865 24.4314C14.7139 24.4314 15.2488 24.2695 15.7837 23.953C15.9947 23.8279 16.0625 23.5557 15.9344 23.3496C15.8063 23.1436 15.5276 23.0773 15.3166 23.2024C15.3016 23.2098 15.2865 23.2171 15.279 23.2245C15.0228 22.7388 14.7064 22.3929 14.3447 22.209C14.5632 18.7502 16.3865 13.9962 19.6261 8.43279C20.1233 7.57913 20.6206 6.76964 21.0952 6.01165C21.1028 6.9021 21.1706 8.07219 21.3891 9.3821C21.9918 12.9071 23.4835 15.7403 25.7061 17.6095C25.6382 18.1394 25.6834 18.5515 25.7889 18.8606C25.5855 18.8238 25.3821 18.9268 25.2992 19.1181C25.2013 19.3389 25.3067 19.6038 25.5328 19.6995C25.7513 19.7952 26.0526 19.8614 26.3992 19.8614C27.1677 19.8614 28.1471 19.5008 28.8251 18.2203C28.9382 18.0069 28.8553 17.7346 28.6293 17.6243C28.4108 17.5139 28.132 17.5948 28.019 17.8156C27.9964 17.8597 27.9738 17.8965 27.9512 17.9333C27.7779 17.8082 27.5745 17.7126 27.3786 17.6243C27.1224 17.5065 26.8362 17.374 26.5725 17.1754C23.7698 15.0044 22.6849 11.6708 22.2705 9.257C21.8712 6.93154 21.9918 4.98874 22.0294 4.53248C23.5438 2.23645 24.6814 0.727847 24.704 0.70577C24.8547 0.507075 24.8095 0.23479 24.6136 0.0876083C24.4102 -0.059573 24.1314 -0.0154186 23.9808 0.175917C23.9657 0.190635 23.4082 0.9339 22.5493 2.16286C21.6151 2.2291 18.0364 2.58969 15.0831 4.14981C14.2016 4.63551 13.5009 5.20952 12.8153 5.76881ZM14.4201 23.5409C14.1941 23.5704 13.9756 23.5557 13.7646 23.5041C13.4934 23.4306 13.2523 23.2981 13.0489 23.1436C13.2523 23.0111 13.516 22.9007 13.7495 22.9449C14.0283 22.989 14.2543 23.2466 14.4201 23.5409ZM27.0019 18.4338C27.1375 18.5 27.2957 18.5662 27.3937 18.6324C27.2053 18.7796 27.0245 18.8753 26.8437 18.9268C26.7307 18.8311 26.6101 18.6177 26.58 18.2277C26.7307 18.3086 26.8738 18.3749 27.0019 18.4338Z" fill="white"/>
</svg>
