<svg width="160" height="240" viewBox="0 0 160 240" fill="none" xmlns="http://www.w3.org/2000/svg">
<path d="M80 40C80 62.0914 62.0914 80 40 80C17.9086 80 0 62.0914 0 40C0 17.9086 17.9086 0 40 0C62.0914 0 80 17.9086 80 40Z" fill="#F24E1E"/>
<path d="M160 40C160 62.0914 142.091 80 120 80C97.9086 80 80 62.0914 80 40C80 17.9086 97.9086 0 120 0C142.091 0 160 17.9086 160 40Z" fill="#FF7262"/>
<path d="M80 120C80 142.091 62.0914 160 40 160C17.9086 160 0 142.091 0 120C0 97.9086 17.9086 80 40 80C62.0914 80 80 97.9086 80 120Z" fill="#A259FF"/>
<path d="M80 200C80 222.091 62.0914 240 40 240C17.9086 240 0 222.091 0 200C0 177.909 17.9086 160 40 160C62.0914 160 80 177.909 80 200Z" fill="#0ACF83"/>
<path d="M160 120C160 142.091 142.091 160 120 160C97.9086 160 80 142.091 80 120C80 97.9086 97.9086 80 120 80C142.091 80 160 97.9086 160 120Z" fill="#1ABCFE"/>
<rect x="40" y="160" width="40" height="40" fill="#0ACF83"/>
<path d="M40 0H80V80H40V0Z" fill="#F24E1E"/>
<path d="M80 0H120V80H80V0Z" fill="#FF7262"/>
<path d="M40 80H80V160H40V80Z" fill="#A259FF"/>
</svg>
