<svg width="419" height="344" viewBox="0 0 419 344" fill="none" xmlns="http://www.w3.org/2000/svg">
<path d="M358.356 2.2085H60.9248C47.6805 2.2085 36.9439 12.688 36.9439 25.6152V202.57C36.9439 215.497 47.6805 225.977 60.9248 225.977H358.356C371.601 225.977 382.337 215.497 382.337 202.57V25.6152C382.337 12.688 371.601 2.2085 358.356 2.2085Z" stroke="#0167A1" stroke-width="4.08616"/>
<path d="M361.133 25.4119H58.1476V193.839H361.133V25.4119Z" stroke="#0167A1" stroke-width="3.89738"/>
<path d="M3.71271 229.045V237.476C3.71271 247.732 12.2411 256.061 22.9903 256.061H396.09C406.839 256.061 415.568 247.732 415.568 237.476V229.045H3.71271V229.045Z" stroke="#0167A1" stroke-width="4.08616" stroke-miterlimit="60.9"/>
<path d="M0 226.843L33.1583 205.991H384.334L419 226.124L0 226.843Z" fill="#0167A1"/>
<path d="M209.5 19.482C212.414 19.482 214.775 17.2284 214.775 14.4485C214.775 11.6686 212.414 9.41504 209.5 9.41504C206.587 9.41504 204.225 11.6686 204.225 14.4485C204.225 17.2284 206.587 19.482 209.5 19.482Z" fill="#0167A1"/>
<path d="M298.937 40.9023H165.188C148.795 40.9023 135.505 53.8739 135.505 69.8752V290.069C135.505 306.07 148.795 319.041 165.188 319.041H298.937C315.331 319.041 328.621 306.07 328.621 290.069V69.8752C328.621 53.8739 315.331 40.9023 298.937 40.9023Z" fill="white" stroke="#0167A1" stroke-width="4.08616"/>
<path d="M305.544 69.813H158.582V279.639H305.544V69.813Z" fill="white" stroke="#0167A1" stroke-width="4.08616"/>
<path d="M250.282 293.994H213.845V304.424H250.282V293.994Z" fill="#0167A1"/>
<path d="M234.672 60.3277C237.198 60.3277 239.246 58.3738 239.246 55.9635C239.246 53.5532 237.198 51.5992 234.672 51.5992C232.146 51.5992 230.098 53.5532 230.098 55.9635C230.098 58.3738 232.146 60.3277 234.672 60.3277Z" fill="#0167A1"/>
<path d="M179.968 162.096H104.236C93.6911 162.096 85.1429 170.44 85.1429 180.732V322.364C85.1429 332.657 93.6911 341 104.236 341H179.968C190.513 341 199.061 332.657 199.061 322.364V180.732C199.061 170.44 190.513 162.096 179.968 162.096Z" fill="white" stroke="#0167A1" stroke-width="4.08616"/>
<path d="M185.448 180.692H98.7556V315.656H185.448V180.692Z" fill="white" stroke="#0167A1" stroke-width="4.08616"/>
<path d="M152.849 324.888H131.355V331.597H152.849V324.888Z" fill="#0167A1"/>
<path d="M417.197 225.274H349.942V228.772H417.197V225.274Z" fill="#0167A1"/>
</svg>
